<svg width="21" height="23" viewBox="0 0 21 23" fill="none" xmlns="http://www.w3.org/2000/svg">
<path fill-rule="evenodd" clip-rule="evenodd" d="M15.1426 10.4257L16.7049 8.79049L16.7049 8.79047C17.0319 8.44821 17.1954 8.27708 17.3033 8.10508C17.7109 7.45521 17.7109 6.62942 17.3033 5.97954C17.1954 5.80754 17.0319 5.63641 16.7049 5.29415L16.7049 5.29413C16.3499 4.9226 16.1724 4.73684 15.994 4.61639C15.3179 4.15997 14.4322 4.15997 13.7561 4.61639C13.5777 4.73684 13.4002 4.9226 13.0452 5.29413L11.6267 6.77889C12.4611 8.27377 13.6717 9.5329 15.1426 10.4257ZM10.1923 8.28031L4.31527 14.4318C3.91049 14.8555 3.70811 15.0673 3.57581 15.3241C3.44352 15.5809 3.38854 15.8687 3.27856 16.4442L2.76587 19.1275C2.70218 19.4607 2.67034 19.6274 2.7658 19.7212C2.86125 19.815 3.02731 19.7802 3.35943 19.7107L5.78498 19.2029L5.785 19.2029L5.78503 19.2029C6.38788 19.0767 6.68931 19.0136 6.95433 18.8663C7.21937 18.719 7.43211 18.4963 7.8576 18.051L13.7335 11.9006C12.3045 10.9593 11.0975 9.72269 10.1923 8.28031Z" fill="white"/>
</svg>
