<svg width="22" height="23" viewBox="0 0 22 23" fill="none" xmlns="http://www.w3.org/2000/svg">
<path d="M9.1665 14.3334L9.1665 11.4714" stroke="white" stroke-width="2" stroke-linecap="round"/>
<path d="M12.8335 14.3334L12.8335 11.4714" stroke="white" stroke-width="2" stroke-linecap="round"/>
<path d="M2.75 6.70123H19.25V6.70123C18.5522 6.70123 18.2033 6.70123 17.9194 6.78735C17.2802 6.98125 16.78 7.48146 16.5861 8.12066C16.5 8.40456 16.5 8.75345 16.5 9.45123V15.1036C16.5 16.9892 16.5 17.932 15.9142 18.5178C15.3284 19.1036 14.3856 19.1036 12.5 19.1036H9.5C7.61438 19.1036 6.67157 19.1036 6.08579 18.5178C5.5 17.932 5.5 16.9892 5.5 15.1036V9.45123C5.5 8.75345 5.5 8.40456 5.41388 8.12066C5.21998 7.48146 4.71977 6.98125 4.08057 6.78735C3.79667 6.70123 3.44778 6.70123 2.75 6.70123V6.70123Z" stroke="#FCFCFC" stroke-width="2" stroke-linecap="round"/>
<path d="M9.2293 3.23868C9.33375 3.13726 9.56392 3.04763 9.8841 2.98371C10.2043 2.91978 10.5966 2.88513 11.0002 2.88513C11.4037 2.88513 11.796 2.91978 12.1162 2.9837C12.4364 3.04763 12.6666 3.13726 12.771 3.23868" stroke="white" stroke-width="2" stroke-linecap="round"/>
</svg>
