<svg width="13" height="15" viewBox="0 0 13 15" fill="none" xmlns="http://www.w3.org/2000/svg">
<path d="M5.42454 13.4343C4.8444 14.4588 4.07491 13.8612 3.76269 13.4343L1.0333 9.21062C0.721165 6.47412 2.70514 7.36164 2.73536 7.44427C2.75953 7.51036 3.99434 9.34456 4.60872 10.2534L9.86623 1.24766C11.4374 0.355348 11.6288 2.08764 11.5281 3.06533L5.42454 13.4343Z" fill="#2E5955"/>
<path d="M1.01307 9.17931L1.0333 9.21063M1.0333 9.21063L3.76269 13.4343C4.07491 13.8612 4.8444 14.4588 5.42454 13.4343L11.5281 3.06533C11.6288 2.08764 11.4374 0.355348 9.86623 1.24766L4.60872 10.2534C3.99434 9.34456 2.75953 7.51036 2.73536 7.44427C2.70514 7.36164 0.721165 6.47412 1.0333 9.21063Z" stroke="#2E5955"/>
</svg>
