<svg width="126" height="31" viewBox="0 0 126 31" fill="none" xmlns="http://www.w3.org/2000/svg">
<path d="M4.64 30H4.32V4.32L4.48 3.32H1.49012e-08V1.2H11.32V3.32H6.8L6.96 4.32V28.16C6.96 29.0667 6.85333 29.6 6.64 29.76C6.45333 29.92 5.78667 30 4.64 30ZM21.2741 29.84C20.9007 29.9467 20.4741 30.04 19.9941 30.12C19.5407 30.2267 18.9807 30.28 18.3141 30.28C17.6741 30.28 17.0874 30.24 16.5541 30.16C16.0474 30.08 15.5941 29.9067 15.1941 29.64C14.8207 29.3733 14.5007 29.1333 14.2341 28.92C13.9941 28.68 13.7807 28.2667 13.5941 27.68C13.4341 27.0933 13.3007 26.6 13.1941 26.2C13.1141 25.8 13.0474 25.1467 12.9941 24.24C12.9674 23.3067 12.9407 22.5467 12.9141 21.96C12.9141 21.3733 12.9141 20.44 12.9141 19.16C12.9141 17.88 12.9141 16.96 12.9141 16.4C12.9407 15.8133 12.9674 15.0667 12.9941 14.16C13.0474 13.2267 13.1141 12.5733 13.1941 12.2C13.3007 11.8 13.4341 11.32 13.5941 10.76C13.7807 10.1733 13.9941 9.77333 14.2341 9.56C14.5007 9.34666 14.8341 9.12 15.2341 8.88C15.8474 8.45333 16.6741 8.24 17.7141 8.24C18.7807 8.24 19.5407 8.29333 19.9941 8.4C20.4741 8.48 20.9007 8.57333 21.2741 8.68C21.6474 8.78666 21.9674 9.01333 22.2341 9.36C22.5007 9.68 22.7274 9.96 22.9141 10.2C23.1007 10.4133 23.2474 10.8133 23.3541 11.4C23.4607 11.96 23.5407 12.4267 23.5941 12.8C23.6741 13.1467 23.7274 13.7467 23.7541 14.6C23.8074 15.4533 23.8341 16.1467 23.8341 16.68V19.16C23.8341 19.16 23.8341 19.2133 23.8341 19.32C23.8341 19.32 23.8341 20.1333 23.8341 21.76C23.8341 23.5733 23.7807 24.7733 23.6741 25.36C23.5674 25.92 23.4607 26.4933 23.3541 27.08C23.2474 27.6667 23.1007 28.08 22.9141 28.32C22.7274 28.5333 22.5007 28.8133 22.2341 29.16C21.9674 29.48 21.6474 29.7067 21.2741 29.84ZM21.4741 20.08V18.72C21.4741 15.2267 21.3274 13.0267 21.0341 12.12C20.6074 10.9733 19.7274 10.3867 18.3941 10.36C17.3007 10.36 16.5674 10.64 16.1941 11.2C15.9807 11.5733 15.8074 11.92 15.6741 12.24C15.5407 12.56 15.4474 13.12 15.3941 13.92C15.3141 15.0933 15.2741 16.2267 15.2741 17.32C15.2741 18.4133 15.2741 19.52 15.2741 20.64C15.2741 21.7333 15.2874 22.68 15.3141 23.48C15.3407 24.28 15.4474 25.1333 15.6341 26.04C15.8474 26.92 16.1674 27.4933 16.5941 27.76C17.0207 28.0267 17.5541 28.16 18.1941 28.16C18.8341 28.16 19.3274 28.1067 19.6741 28C20.0207 27.8667 20.3007 27.64 20.5141 27.32C20.7541 26.9733 20.9274 26.64 21.0341 26.32C21.1674 25.9733 21.2607 25.44 21.3141 24.72C21.4207 23.68 21.4741 22.1333 21.4741 20.08ZM36.835 18H28.275V15.96H36.835V18ZM55.5925 12.92V18.08C55.5925 20.24 55.5258 21.72 55.3925 22.52C55.2858 23.32 55.1525 24.1333 54.9925 24.96C54.8325 25.76 54.6325 26.3733 54.3925 26.8C54.1792 27.2267 53.8992 27.7067 53.5525 28.24C53.2058 28.7467 52.8058 29.12 52.3525 29.36C51.3125 29.9733 50.1125 30.28 48.7525 30.28L42.3125 30V1.12L48.7525 0.719998C50.1925 0.719998 51.2192 0.919998 51.8325 1.32C52.4458 1.69333 52.9125 2.02667 53.2325 2.32C53.5792 2.58667 53.8725 2.98666 54.1125 3.52C54.3525 4.05333 54.5525 4.52 54.7125 4.92C54.8992 5.32 55.0458 5.90667 55.1525 6.68C55.2592 7.42667 55.3392 8.05333 55.3925 8.56C55.5258 9.44 55.5925 10.8933 55.5925 12.92ZM48.7525 28C49.8458 28 50.6725 27.6533 51.2325 26.96C51.5525 26.5867 51.8192 26.2133 52.0325 25.84C52.2458 25.4667 52.4058 24.9333 52.5125 24.24C52.6458 23.52 52.7525 22.92 52.8325 22.44C52.9125 21.9333 52.9658 21.2 52.9925 20.24C53.0458 19.2533 53.0725 18.48 53.0725 17.92V12.8C53.0725 10.8267 53.0058 9.48 52.8725 8.76C52.7658 8.01333 52.6458 7.29333 52.5125 6.6C52.4058 5.90667 52.2458 5.38667 52.0325 5.04C51.8192 4.69333 51.5525 4.34667 51.2325 4C50.6992 3.33333 49.8725 3 48.7525 3H44.6725L44.8325 4V27L44.6725 28H48.7525ZM68.5397 29.84C68.1664 29.9467 67.7397 30.04 67.2597 30.12C66.8064 30.2267 66.2464 30.28 65.5797 30.28C64.9397 30.28 64.353 30.24 63.8197 30.16C63.313 30.08 62.8597 29.9067 62.4597 29.64C62.0864 29.3733 61.7664 29.1333 61.4997 28.92C61.2597 28.68 61.0464 28.2667 60.8597 27.68C60.6997 27.0933 60.5664 26.6 60.4597 26.2C60.3797 25.8 60.313 25.1467 60.2597 24.24C60.233 23.3067 60.2064 22.5467 60.1797 21.96C60.1797 21.3733 60.1797 20.44 60.1797 19.16C60.1797 17.88 60.1797 16.96 60.1797 16.4C60.2064 15.8133 60.233 15.0667 60.2597 14.16C60.313 13.2267 60.3797 12.5733 60.4597 12.2C60.5664 11.8 60.6997 11.32 60.8597 10.76C61.0464 10.1733 61.2597 9.77333 61.4997 9.56C61.7664 9.34666 62.0997 9.12 62.4997 8.88C63.113 8.45333 63.9397 8.24 64.9797 8.24C66.0464 8.24 66.8064 8.29333 67.2597 8.4C67.7397 8.48 68.1664 8.57333 68.5397 8.68C68.913 8.78666 69.233 9.01333 69.4997 9.36C69.7664 9.68 69.993 9.96 70.1797 10.2C70.3664 10.4133 70.513 10.8133 70.6197 11.4C70.7264 11.96 70.8064 12.4267 70.8597 12.8C70.9397 13.1467 70.993 13.7467 71.0197 14.6C71.073 15.4533 71.0997 16.1467 71.0997 16.68V19.16C71.0997 19.16 71.0997 19.2133 71.0997 19.32C71.0997 19.32 71.0997 20.1333 71.0997 21.76C71.0997 23.5733 71.0464 24.7733 70.9397 25.36C70.833 25.92 70.7264 26.4933 70.6197 27.08C70.513 27.6667 70.3664 28.08 70.1797 28.32C69.993 28.5333 69.7664 28.8133 69.4997 29.16C69.233 29.48 68.913 29.7067 68.5397 29.84ZM68.7397 20.08V18.72C68.7397 15.2267 68.593 13.0267 68.2997 12.12C67.873 10.9733 66.993 10.3867 65.6597 10.36C64.5664 10.36 63.833 10.64 63.4597 11.2C63.2464 11.5733 63.073 11.92 62.9397 12.24C62.8064 12.56 62.713 13.12 62.6597 13.92C62.5797 15.0933 62.5397 16.2267 62.5397 17.32C62.5397 18.4133 62.5397 19.52 62.5397 20.64C62.5397 21.7333 62.553 22.68 62.5797 23.48C62.6064 24.28 62.713 25.1333 62.8997 26.04C63.113 26.92 63.433 27.4933 63.8597 27.76C64.2864 28.0267 64.8197 28.16 65.4597 28.16C66.0997 28.16 66.593 28.1067 66.9397 28C67.2864 27.8667 67.5664 27.64 67.7797 27.32C68.0197 26.9733 68.193 26.64 68.2997 26.32C68.433 25.9733 68.5264 25.44 68.5797 24.72C68.6864 23.68 68.7397 22.1333 68.7397 20.08ZM93.7178 30H83.7578V1.2H84.0778C85.2245 1.2 85.8911 1.28 86.0778 1.44C86.2911 1.6 86.3978 2.13333 86.3978 3.04V26.72L86.2378 27.72H91.3978C92.5445 27.72 93.2111 27.8 93.3978 27.96C93.6111 28.12 93.7178 28.6533 93.7178 29.56V30ZM100.571 4.32C100.224 4.66667 99.7976 4.84 99.2909 4.84C98.7843 4.84 98.3443 4.66667 97.9709 4.32C97.6243 3.94667 97.4509 3.50667 97.4509 3C97.4509 2.46667 97.6243 2.04 97.9709 1.72C98.3443 1.37333 98.7843 1.2 99.2909 1.2C99.7976 1.2 100.224 1.37333 100.571 1.72C100.944 2.06667 101.131 2.49333 101.131 3C101.131 3.50667 100.944 3.94667 100.571 4.32ZM98.1309 28.32V8.52C99.3043 8.52 99.9843 8.6 100.171 8.76C100.384 8.89333 100.491 9.42667 100.491 10.36V30.16C99.3176 30.16 98.6243 30.08 98.4109 29.92C98.2243 29.76 98.1309 29.2267 98.1309 28.32ZM113.376 28.96C113.056 29.36 112.629 29.6667 112.096 29.88C111.563 30.0667 110.909 30.16 110.136 30.16C109.363 30.16 107.776 29.96 105.376 29.56V27.44C105.483 27.44 106.149 27.5067 107.376 27.64C108.629 27.7733 109.563 27.84 110.176 27.84C111.669 27.84 112.416 26.4533 112.416 23.68C112.416 23.4933 112.416 23.3067 112.416 23.12C112.389 22.2667 111.563 21.2267 109.936 20C108.309 18.7467 107.109 17.6533 106.336 16.72C105.563 15.7867 105.176 14.84 105.176 13.88C105.176 12.92 105.189 12.2533 105.216 11.88C105.243 11.5067 105.336 11.04 105.496 10.48C105.656 9.92 105.896 9.52 106.216 9.28C107.043 8.61333 108.296 8.28 109.976 8.28L113.776 8.84C113.776 10.0133 113.296 10.6 112.336 10.6C112.149 10.6 111.963 10.5867 111.776 10.56L110.136 10.32C108.829 10.32 108.029 10.6133 107.736 11.2C107.496 11.7067 107.376 12.4533 107.376 13.44C107.376 14.4 108.416 15.7067 110.496 17.36C111.456 18.08 112.176 18.6533 112.656 19.08C113.163 19.5067 113.643 20.0667 114.096 20.76C114.576 21.4533 114.816 22.1333 114.816 22.8C114.816 23.44 114.803 24 114.776 24.48C114.749 24.9333 114.683 25.48 114.576 26.12C114.496 26.76 114.349 27.2933 114.136 27.72C113.949 28.1467 113.696 28.56 113.376 28.96ZM118.975 20.88V11.68L119.135 10.68H117.415V8.52H119.135L118.975 7.12V5.36C120.149 5.36 120.829 5.44 121.015 5.6C121.229 5.76 121.335 6.29333 121.335 7.2L121.175 8.52H124.855C124.855 9.50667 124.762 10.12 124.575 10.36C124.415 10.5733 123.869 10.68 122.935 10.68H121.175L121.335 11.68V20.88C121.335 23.92 121.415 25.8933 121.575 26.8C121.735 27.7067 122.189 28.16 122.935 28.16H125.655V30L122.895 30.2C121.055 30.2 119.935 29.64 119.535 28.52C119.162 27.3733 118.975 24.8267 118.975 20.88Z" fill="#B0D9CD"/>
</svg>
